<mxfile host="app.diagrams.net" agent="Mozilla/5.0 (Windows NT 10.0; Win64; x64) AppleWebKit/537.36 (KHTML, like Gecko) Chrome/133.0.0.0 Safari/537.36" version="26.1.0">
  <diagram name="PÃ¡gina-1" id="Od9XOjwpUgwiDe4lV0Jp">
    <mxGraphModel dx="712" dy="787" grid="1" gridSize="10" guides="1" tooltips="1" connect="1" arrows="1" fold="1" page="1" pageScale="1" pageWidth="827" pageHeight="1169" math="0" shadow="0">
      <root>
        <mxCell id="0" />
        <mxCell id="1" parent="0" />
        <mxCell id="T48pRYuKinTxPR9l6l49-1" value="GestionaBiblioteca" style="swimlane;fontStyle=1;align=center;verticalAlign=top;childLayout=stackLayout;horizontal=1;startSize=26;horizontalStack=0;resizeParent=1;resizeParentMax=0;resizeLast=0;collapsible=1;marginBottom=0;whiteSpace=wrap;html=1;" vertex="1" parent="1">
          <mxGeometry x="480" y="20" width="160" height="52" as="geometry" />
        </mxCell>
        <mxCell id="T48pRYuKinTxPR9l6l49-2" value="Constructores" style="text;strokeColor=none;fillColor=none;align=left;verticalAlign=top;spacingLeft=4;spacingRight=4;overflow=hidden;rotatable=0;points=[[0,0.5],[1,0.5]];portConstraint=eastwest;whiteSpace=wrap;html=1;" vertex="1" parent="T48pRYuKinTxPR9l6l49-1">
          <mxGeometry y="26" width="160" height="26" as="geometry" />
        </mxCell>
        <mxCell id="T48pRYuKinTxPR9l6l49-5" value="IPrestable" style="swimlane;fontStyle=1;align=center;verticalAlign=top;childLayout=stackLayout;horizontal=1;startSize=26;horizontalStack=0;resizeParent=1;resizeParentMax=0;resizeLast=0;collapsible=1;marginBottom=0;whiteSpace=wrap;html=1;autosize=1;" vertex="1" parent="1">
          <mxGeometry x="90" y="20" width="190" height="66" as="geometry" />
        </mxCell>
        <mxCell id="T48pRYuKinTxPR9l6l49-8" value="+ estaDisponible() boolean;&lt;div&gt;+ DevuelveDiasPrestado() int;&lt;/div&gt;" style="text;strokeColor=none;fillColor=none;align=left;verticalAlign=top;spacingLeft=4;spacingRight=4;overflow=hidden;rotatable=0;points=[[0,0.5],[1,0.5]];portConstraint=eastwest;whiteSpace=wrap;html=1;autosize=1;" vertex="1" parent="T48pRYuKinTxPR9l6l49-5">
          <mxGeometry y="26" width="190" height="40" as="geometry" />
        </mxCell>
        <mxCell id="T48pRYuKinTxPR9l6l49-9" value="Libro" style="swimlane;fontStyle=1;align=center;verticalAlign=top;childLayout=stackLayout;horizontal=1;startSize=38;horizontalStack=0;resizeParent=1;resizeParentMax=0;resizeLast=0;collapsible=1;marginBottom=0;whiteSpace=wrap;html=1;autosize=1;" vertex="1" parent="1">
          <mxGeometry x="80" y="320" width="180" height="156" as="geometry" />
        </mxCell>
        <mxCell id="T48pRYuKinTxPR9l6l49-10" value="- autor: String&lt;div&gt;- editorial: String&lt;/div&gt;&lt;div&gt;- genero: String&lt;/div&gt;&lt;div&gt;- diasPrestamo default 21 int;&lt;/div&gt;" style="text;strokeColor=none;fillColor=none;align=left;verticalAlign=top;spacingLeft=4;spacingRight=4;overflow=hidden;rotatable=0;points=[[0,0.5],[1,0.5]];portConstraint=eastwest;whiteSpace=wrap;html=1;autosize=1;" vertex="1" parent="T48pRYuKinTxPR9l6l49-9">
          <mxGeometry y="38" width="180" height="70" as="geometry" />
        </mxCell>
        <mxCell id="T48pRYuKinTxPR9l6l49-11" value="" style="line;strokeWidth=1;fillColor=none;align=left;verticalAlign=middle;spacingTop=-1;spacingLeft=3;spacingRight=3;rotatable=0;labelPosition=right;points=[];portConstraint=eastwest;strokeColor=inherit;autosize=1;" vertex="1" parent="T48pRYuKinTxPR9l6l49-9">
          <mxGeometry y="108" width="180" height="8" as="geometry" />
        </mxCell>
        <mxCell id="T48pRYuKinTxPR9l6l49-12" value="+ set() and get()&lt;div&gt;+ Libro();&lt;/div&gt;" style="text;strokeColor=none;fillColor=none;align=left;verticalAlign=top;spacingLeft=4;spacingRight=4;overflow=hidden;rotatable=0;points=[[0,0.5],[1,0.5]];portConstraint=eastwest;whiteSpace=wrap;html=1;autosize=1;" vertex="1" parent="T48pRYuKinTxPR9l6l49-9">
          <mxGeometry y="116" width="180" height="40" as="geometry" />
        </mxCell>
        <mxCell id="T48pRYuKinTxPR9l6l49-13" value="&amp;lt;&amp;lt;&lt;i&gt;Recurso&lt;/i&gt;&amp;gt;&amp;gt;" style="swimlane;fontStyle=1;align=center;verticalAlign=top;childLayout=stackLayout;horizontal=1;startSize=38;horizontalStack=0;resizeParent=1;resizeParentMax=0;resizeLast=0;collapsible=1;marginBottom=0;whiteSpace=wrap;html=1;autosize=1;" vertex="1" parent="1">
          <mxGeometry x="300" y="120" width="160" height="146" as="geometry" />
        </mxCell>
        <mxCell id="T48pRYuKinTxPR9l6l49-14" value="- id: int;&lt;div&gt;- ubicacion: String&lt;/div&gt;" style="text;strokeColor=none;fillColor=none;align=left;verticalAlign=top;spacingLeft=4;spacingRight=4;overflow=hidden;rotatable=0;points=[[0,0.5],[1,0.5]];portConstraint=eastwest;whiteSpace=wrap;html=1;autosize=1;" vertex="1" parent="T48pRYuKinTxPR9l6l49-13">
          <mxGeometry y="38" width="160" height="40" as="geometry" />
        </mxCell>
        <mxCell id="T48pRYuKinTxPR9l6l49-15" value="" style="line;strokeWidth=1;fillColor=none;align=left;verticalAlign=middle;spacingTop=-1;spacingLeft=3;spacingRight=3;rotatable=0;labelPosition=right;points=[];portConstraint=eastwest;strokeColor=inherit;autosize=1;" vertex="1" parent="T48pRYuKinTxPR9l6l49-13">
          <mxGeometry y="78" width="160" height="8" as="geometry" />
        </mxCell>
        <mxCell id="T48pRYuKinTxPR9l6l49-16" value="+ get() and set();&lt;div&gt;+ equals();&lt;/div&gt;&lt;div&gt;+ Recurso();&lt;/div&gt;" style="text;strokeColor=none;fillColor=none;align=left;verticalAlign=top;spacingLeft=4;spacingRight=4;overflow=hidden;rotatable=0;points=[[0,0.5],[1,0.5]];portConstraint=eastwest;whiteSpace=wrap;html=1;autosize=1;" vertex="1" parent="T48pRYuKinTxPR9l6l49-13">
          <mxGeometry y="86" width="160" height="60" as="geometry" />
        </mxCell>
        <mxCell id="T48pRYuKinTxPR9l6l49-17" value="Use" style="endArrow=open;endSize=12;dashed=1;html=1;rounded=0;fontSize=12;curved=1;entryX=0.526;entryY=1.025;entryDx=0;entryDy=0;entryPerimeter=0;exitX=0.5;exitY=0;exitDx=0;exitDy=0;" edge="1" parent="1" source="T48pRYuKinTxPR9l6l49-13" target="T48pRYuKinTxPR9l6l49-8">
          <mxGeometry width="160" relative="1" as="geometry">
            <mxPoint x="70" y="160" as="sourcePoint" />
            <mxPoint x="230" y="160" as="targetPoint" />
          </mxGeometry>
        </mxCell>
        <mxCell id="T48pRYuKinTxPR9l6l49-18" value="Multimedia" style="swimlane;fontStyle=1;align=center;verticalAlign=top;childLayout=stackLayout;horizontal=1;startSize=38;horizontalStack=0;resizeParent=1;resizeParentMax=0;resizeLast=0;collapsible=1;marginBottom=0;whiteSpace=wrap;html=1;autosize=1;" vertex="1" parent="1">
          <mxGeometry x="400" y="320" width="180" height="146" as="geometry" />
        </mxCell>
        <mxCell id="T48pRYuKinTxPR9l6l49-19" value="- nombre: String&lt;div&gt;&lt;span style=&quot;background-color: transparent; color: light-dark(rgb(0, 0, 0), rgb(255, 255, 255));&quot;&gt;- genero: String&lt;/span&gt;&lt;/div&gt;&lt;div&gt;- diasPrestamo default 10 int;&lt;/div&gt;" style="text;strokeColor=none;fillColor=none;align=left;verticalAlign=top;spacingLeft=4;spacingRight=4;overflow=hidden;rotatable=0;points=[[0,0.5],[1,0.5]];portConstraint=eastwest;whiteSpace=wrap;html=1;autosize=1;" vertex="1" parent="T48pRYuKinTxPR9l6l49-18">
          <mxGeometry y="38" width="180" height="60" as="geometry" />
        </mxCell>
        <mxCell id="T48pRYuKinTxPR9l6l49-20" value="" style="line;strokeWidth=1;fillColor=none;align=left;verticalAlign=middle;spacingTop=-1;spacingLeft=3;spacingRight=3;rotatable=0;labelPosition=right;points=[];portConstraint=eastwest;strokeColor=inherit;autosize=1;" vertex="1" parent="T48pRYuKinTxPR9l6l49-18">
          <mxGeometry y="98" width="180" height="8" as="geometry" />
        </mxCell>
        <mxCell id="T48pRYuKinTxPR9l6l49-21" value="+ set() and get()&lt;div&gt;+ Multimedia();&lt;/div&gt;" style="text;strokeColor=none;fillColor=none;align=left;verticalAlign=top;spacingLeft=4;spacingRight=4;overflow=hidden;rotatable=0;points=[[0,0.5],[1,0.5]];portConstraint=eastwest;whiteSpace=wrap;html=1;autosize=1;" vertex="1" parent="T48pRYuKinTxPR9l6l49-18">
          <mxGeometry y="106" width="180" height="40" as="geometry" />
        </mxCell>
        <mxCell id="T48pRYuKinTxPR9l6l49-22" value="Pelicula" style="swimlane;fontStyle=1;align=center;verticalAlign=top;childLayout=stackLayout;horizontal=1;startSize=30;horizontalStack=0;resizeParent=1;resizeParentMax=0;resizeLast=0;collapsible=1;marginBottom=0;whiteSpace=wrap;html=1;autosize=1;" vertex="1" parent="1">
          <mxGeometry x="224" y="520" width="190" height="90" as="geometry" />
        </mxCell>
        <mxCell id="T48pRYuKinTxPR9l6l49-25" value="+ duracionMinutos(): int&lt;div&gt;+ estaDisponible() boolean;&lt;div&gt;+ DevuelveDiasPrestado() int;&lt;/div&gt;&lt;/div&gt;" style="text;strokeColor=none;fillColor=none;align=left;verticalAlign=top;spacingLeft=4;spacingRight=4;overflow=hidden;rotatable=0;points=[[0,0.5],[1,0.5]];portConstraint=eastwest;whiteSpace=wrap;html=1;autosize=1;" vertex="1" parent="T48pRYuKinTxPR9l6l49-22">
          <mxGeometry y="30" width="190" height="60" as="geometry" />
        </mxCell>
        <mxCell id="T48pRYuKinTxPR9l6l49-26" value="Audio" style="swimlane;fontStyle=1;align=center;verticalAlign=top;childLayout=stackLayout;horizontal=1;startSize=30;horizontalStack=0;resizeParent=1;resizeParentMax=0;resizeLast=0;collapsible=1;marginBottom=0;whiteSpace=wrap;html=1;autosize=1;" vertex="1" parent="1">
          <mxGeometry x="430" y="520" width="190" height="90" as="geometry" />
        </mxCell>
        <mxCell id="T48pRYuKinTxPR9l6l49-29" value="+ duracionMinutos(): int&lt;div&gt;+ estaDisponible() boolean;&lt;div&gt;+ DevuelveDiasPrestado() int;&lt;/div&gt;&lt;/div&gt;" style="text;strokeColor=none;fillColor=none;align=left;verticalAlign=top;spacingLeft=4;spacingRight=4;overflow=hidden;rotatable=0;points=[[0,0.5],[1,0.5]];portConstraint=eastwest;whiteSpace=wrap;html=1;autosize=1;" vertex="1" parent="T48pRYuKinTxPR9l6l49-26">
          <mxGeometry y="30" width="190" height="60" as="geometry" />
        </mxCell>
        <mxCell id="T48pRYuKinTxPR9l6l49-30" value="Juego" style="swimlane;fontStyle=1;align=center;verticalAlign=top;childLayout=stackLayout;horizontal=1;startSize=30;horizontalStack=0;resizeParent=1;resizeParentMax=0;resizeLast=0;collapsible=1;marginBottom=0;whiteSpace=wrap;html=1;autosize=1;" vertex="1" parent="1">
          <mxGeometry x="630" y="520" width="190" height="90" as="geometry" />
        </mxCell>
        <mxCell id="T48pRYuKinTxPR9l6l49-31" value="+ numFases(): int&lt;div&gt;+ estaDisponible() boolean;&lt;div&gt;+ DevuelveDiasPrestado() int;&lt;/div&gt;&lt;/div&gt;" style="text;strokeColor=none;fillColor=none;align=left;verticalAlign=top;spacingLeft=4;spacingRight=4;overflow=hidden;rotatable=0;points=[[0,0.5],[1,0.5]];portConstraint=eastwest;whiteSpace=wrap;html=1;autosize=1;" vertex="1" parent="T48pRYuKinTxPR9l6l49-30">
          <mxGeometry y="30" width="190" height="60" as="geometry" />
        </mxCell>
        <mxCell id="T48pRYuKinTxPR9l6l49-32" value="Extends" style="endArrow=block;endSize=16;endFill=0;html=1;rounded=0;fontSize=12;curved=1;exitX=0.5;exitY=0;exitDx=0;exitDy=0;entryX=0.006;entryY=1.017;entryDx=0;entryDy=0;entryPerimeter=0;" edge="1" parent="1" source="T48pRYuKinTxPR9l6l49-9" target="T48pRYuKinTxPR9l6l49-16">
          <mxGeometry width="160" relative="1" as="geometry">
            <mxPoint x="250" y="300" as="sourcePoint" />
            <mxPoint x="410" y="300" as="targetPoint" />
          </mxGeometry>
        </mxCell>
        <mxCell id="T48pRYuKinTxPR9l6l49-33" value="Extends" style="endArrow=block;endSize=16;endFill=0;html=1;rounded=0;fontSize=12;curved=1;exitX=0.5;exitY=0;exitDx=0;exitDy=0;entryX=1.006;entryY=1;entryDx=0;entryDy=0;entryPerimeter=0;" edge="1" parent="1" source="T48pRYuKinTxPR9l6l49-18" target="T48pRYuKinTxPR9l6l49-16">
          <mxGeometry width="160" relative="1" as="geometry">
            <mxPoint x="240" y="330" as="sourcePoint" />
            <mxPoint x="311" y="277" as="targetPoint" />
          </mxGeometry>
        </mxCell>
        <mxCell id="T48pRYuKinTxPR9l6l49-34" value="Extends" style="endArrow=block;endSize=16;endFill=0;html=1;rounded=0;fontSize=12;curved=1;exitX=0.5;exitY=0;exitDx=0;exitDy=0;" edge="1" parent="1" source="T48pRYuKinTxPR9l6l49-22" target="T48pRYuKinTxPR9l6l49-21">
          <mxGeometry width="160" relative="1" as="geometry">
            <mxPoint x="540" y="330" as="sourcePoint" />
            <mxPoint x="471" y="276" as="targetPoint" />
          </mxGeometry>
        </mxCell>
        <mxCell id="T48pRYuKinTxPR9l6l49-35" value="Extends" style="endArrow=block;endSize=16;endFill=0;html=1;rounded=0;fontSize=12;curved=1;exitX=0.5;exitY=0;exitDx=0;exitDy=0;" edge="1" parent="1" source="T48pRYuKinTxPR9l6l49-26" target="T48pRYuKinTxPR9l6l49-21">
          <mxGeometry width="160" relative="1" as="geometry">
            <mxPoint x="380" y="530" as="sourcePoint" />
            <mxPoint x="497" y="476" as="targetPoint" />
          </mxGeometry>
        </mxCell>
        <mxCell id="T48pRYuKinTxPR9l6l49-36" value="Extends" style="endArrow=block;endSize=16;endFill=0;html=1;rounded=0;fontSize=12;curved=1;exitX=0.5;exitY=0;exitDx=0;exitDy=0;" edge="1" parent="1" source="T48pRYuKinTxPR9l6l49-30" target="T48pRYuKinTxPR9l6l49-21">
          <mxGeometry width="160" relative="1" as="geometry">
            <mxPoint x="390" y="540" as="sourcePoint" />
            <mxPoint x="507" y="486" as="targetPoint" />
          </mxGeometry>
        </mxCell>
      </root>
    </mxGraphModel>
  </diagram>
</mxfile>
